<svg width="1366" height="147" viewBox="0 0 1366 147" fill="none" xmlns="http://www.w3.org/2000/svg">
<path fill-rule="evenodd" clip-rule="evenodd" d="M1366 113.343C1347.5 110.885 1329.08 108.468 1310.99 106.092L1310.99 106.092L1310.98 106.091C1278.26 101.795 1246.6 97.6383 1217.39 93.6322C1110.52 78.9714 998.866 70.9903 885.941 62.9182C824.929 58.5569 763.545 54.169 702.343 48.6868C640.836 43.1773 577.857 35.3732 515.316 27.6234C395.552 12.7828 277.395 -1.85875 174.259 0.193178C75.035 2.16726 42.9722 18.9694 10.2842 36.0992L10.2836 36.0995L10.2834 36.0997C6.88767 37.8792 3.48521 39.6622 0 41.4325V147H1366V113.343Z" fill="#DDDBF2" fill-opacity="0.26"/>
</svg>
