<svg width="1366" height="112" viewBox="0 0 1366 112" fill="none" xmlns="http://www.w3.org/2000/svg">
<path fill-rule="evenodd" clip-rule="evenodd" d="M1366 0H0V23.2844C79.0078 42.0482 172.154 58.6399 261.729 71.9715C372.219 88.4161 481.981 91.7163 592.365 95.0352C635.235 96.3242 678.2 97.616 721.337 99.6818C749.929 101.051 779.133 102.793 808.302 104.534C896.408 109.79 984.192 115.028 1053.85 109.904C1119.23 105.095 1150.1 91.1519 1181.04 77.1823C1191.39 72.5054 1201.76 67.8255 1213.42 63.4844C1230.71 57.0518 1241.26 49.5297 1251.75 42.0446C1265.59 32.1738 1279.34 22.3674 1308.34 15.2086C1324.57 11.2024 1344.23 7.86063 1366 4.9405V0Z" fill="#DDDBF2" fill-opacity="0.26"/>
</svg>
